<?xml version="1.0" standalone="no"?>
<!DOCTYPE svg PUBLIC "-//W3C//DTD SVG 20010904//EN"
 "http://www.w3.org/TR/2001/REC-SVG-20010904/DTD/svg10.dtd">
<svg version="1.0" xmlns="http://www.w3.org/2000/svg"
 width="608.000000pt" height="608.000000pt" viewBox="0 0 608.000000 608.000000"
 preserveAspectRatio="xMidYMid meet">

<g transform="translate(0.000000,608.000000) scale(0.100000,-0.100000)"
fill="#000000" stroke="none">
<path d="M510 3446 c0 -1563 4 -2637 9 -2640 5 -4 28 22 52 56 48 72 51 74
101 88 31 9 42 19 60 58 29 60 60 75 163 77 85 2 159 26 123 40 -29 11 -21 34
19 50 52 22 61 32 55 60 -3 18 -11 25 -27 25 -24 0 -35 16 -28 38 3 6 10 12
16 12 7 0 35 12 62 25 28 14 60 25 72 25 12 0 34 5 50 11 15 5 59 16 98 24 39
7 97 21 128 30 56 16 57 17 72 67 18 62 54 124 92 159 29 28 125 82 161 91 15
4 22 16 27 44 5 35 15 95 70 399 11 61 12 99 5 160 -5 44 -14 130 -20 190 -11
119 -19 135 -70 135 -34 0 -108 63 -126 107 -8 18 -14 48 -14 67 0 18 -9 63
-20 98 -35 115 -70 311 -81 458 l-11 145 32 75 c17 41 41 99 52 129 15 36 32
60 52 72 35 21 93 24 117 6 32 -24 59 -90 59 -143 0 -34 5 -56 15 -64 11 -9
15 -34 15 -94 l0 -81 -34 -19 c-20 -11 -39 -31 -45 -47 -5 -16 -17 -29 -25
-29 -9 0 -16 -7 -16 -15 0 -8 -5 -15 -11 -15 -6 0 -8 -9 -4 -20 3 -11 2 -20
-3 -20 -20 0 -21 -44 -2 -63 11 -10 20 -13 20 -8 0 5 12 11 27 13 21 2 30 11
36 33 5 17 13 37 17 46 35 70 156 414 175 497 18 78 70 232 95 282 20 39 148
166 198 195 20 12 36 32 41 52 5 18 19 46 30 62 12 16 21 36 21 44 0 37 30 85
62 98 36 14 61 43 63 72 1 10 9 26 19 35 13 14 20 14 36 4 28 -17 51 -15 44 3
-13 33 87 6 129 -34 55 -54 71 -68 94 -80 21 -11 22 -10 16 26 -4 26 -3 34 5
29 7 -4 12 -13 12 -20 0 -7 10 -18 23 -25 12 -7 31 -24 41 -38 19 -26 19 -26
0 -21 -10 3 -28 9 -38 14 -11 4 -17 4 -13 -2 16 -27 267 -122 303 -116 6 1 27
-15 45 -35 41 -46 123 -114 164 -136 17 -8 63 -28 103 -43 40 -15 84 -38 98
-51 14 -13 29 -23 33 -23 4 0 16 -9 26 -21 16 -17 17 -25 8 -49 -8 -21 -8 -30
0 -33 6 -2 8 -10 4 -19 -8 -21 -74 -32 -147 -23 -53 6 -61 5 -66 -12 -11 -29
-56 -73 -75 -73 -10 0 -30 16 -45 35 -14 19 -33 35 -41 35 -8 0 -27 7 -42 15
-15 7 -48 15 -72 16 -24 1 -84 14 -134 30 -218 69 -262 79 -382 85 -116 6
-173 -2 -173 -26 0 -12 89 -56 133 -65 18 -4 43 -17 57 -30 29 -26 83 -60 121
-76 31 -12 43 -50 24 -75 -10 -14 -34 -17 -151 -18 -165 -2 -241 -21 -291 -71
-27 -27 -31 -36 -24 -61 l7 -29 110 -7 c136 -9 156 -13 221 -35 56 -19 68 -32
31 -34 -51 -2 -83 -11 -108 -33 -21 -17 -25 -27 -19 -44 15 -41 65 -52 239
-53 204 -1 254 12 271 71 10 33 18 41 52 53 29 9 45 23 61 52 17 32 39 49 102
82 88 46 110 51 118 26 3 -10 19 -25 34 -34 29 -16 42 -55 56 -169 20 -161 46
-300 56 -300 11 0 30 -97 30 -151 0 -48 -1 -49 -29 -49 -17 0 -33 -4 -36 -10
-3 -5 -17 -10 -30 -10 -12 0 -33 -11 -46 -25 -14 -14 -35 -25 -50 -25 -14 0
-41 -5 -59 -11 -31 -11 -32 -13 -27 -56 4 -35 1 -45 -14 -53 -24 -14 -33 -12
-21 3 19 23 1 65 -39 93 -31 21 -50 27 -87 25 -52 -2 -160 -29 -168 -42 -3 -5
-14 -9 -25 -9 -27 0 -24 -22 7 -54 30 -30 84 -35 104 -11 14 17 105 21 115 5
10 -16 -13 -38 -46 -45 -33 -7 -33 -9 -19 -36 15 -28 -3 -55 -45 -69 -19 -6
-40 -20 -46 -31 -5 -11 -14 -17 -19 -14 -12 7 -41 -5 -35 -16 6 -9 53 -31 100
-47 l30 -10 -32 -1 c-37 -1 -91 -13 -209 -48 -116 -34 -131 -32 -144 17 -12
43 -25 48 -71 27 -33 -15 -94 -68 -108 -95 -6 -11 -12 -46 -13 -79 -2 -32 -7
-61 -13 -66 -16 -12 97 4 125 18 14 7 45 15 69 19 24 4 57 14 75 24 48 26 196
21 321 -12 55 -14 111 -26 124 -26 33 0 141 -30 165 -46 18 -12 17 -13 -8 -20
-14 -3 -36 -4 -48 0 -14 3 -46 -6 -85 -24 -64 -30 -153 -44 -184 -29 -23 11
-179 21 -179 11 0 -4 4 -12 9 -17 5 -6 11 -21 13 -35 2 -14 13 -29 26 -35 12
-5 22 -15 22 -22 0 -7 5 -13 12 -13 7 0 24 -11 38 -25 15 -14 52 -32 85 -41
33 -8 67 -21 75 -29 10 -9 36 -15 61 -15 25 0 49 -4 55 -9 5 -5 48 -11 95 -13
93 -5 146 -26 135 -54 -3 -8 1 -25 9 -38 17 -25 11 -54 -13 -72 -9 -6 -16 -22
-18 -35 -1 -13 -3 -27 -3 -31 -1 -5 -10 -8 -20 -8 -11 0 -22 -4 -26 -10 -3 -5
-11 -7 -18 -4 -7 2 -24 -4 -37 -16 -17 -15 -37 -20 -78 -20 -38 0 -65 -6 -88
-21 -36 -22 -87 -19 -101 5 -10 15 -53 28 -53 15 0 -5 -18 1 -41 13 -35 18
-46 19 -77 10 -72 -22 -115 -31 -124 -26 -4 3 -21 -4 -36 -14 -53 -39 -195
-37 -219 1 -12 18 -100 55 -160 66 -29 6 -61 18 -72 28 -20 17 -71 25 -71 11
0 -5 -11 -1 -24 7 -16 11 -26 13 -31 5 -21 -33 56 -121 160 -183 39 -23 76
-48 83 -57 20 -25 52 -92 52 -112 0 -13 11 -19 40 -24 33 -5 43 -13 56 -39 8
-18 16 -42 17 -54 1 -11 4 -21 7 -21 3 0 4 -30 3 -67 -2 -38 0 -75 4 -83 3 -8
5 -24 4 -35 -1 -11 8 -30 19 -43 12 -12 28 -45 36 -73 15 -50 15 -52 -7 -75
-15 -16 -22 -35 -21 -55 2 -19 -3 -32 -13 -35 -8 -4 -15 -12 -15 -20 0 -8 -9
-14 -21 -14 -22 0 -42 -16 -52 -43 -3 -9 -10 -17 -15 -17 -5 0 -8 -30 -6 -67
1 -50 -2 -73 -13 -85 -9 -10 -12 -18 -6 -18 20 0 29 -42 18 -85 -13 -52 -31
-75 -60 -75 -21 0 -45 -34 -45 -64 0 -7 -9 -21 -20 -31 -15 -14 -17 -21 -8
-32 8 -10 8 -20 -1 -39 -6 -14 -11 -35 -11 -47 0 -13 -5 -28 -10 -33 -18 -18
17 -74 46 -74 14 0 24 -6 24 -14 0 -7 7 -19 15 -26 12 -10 13 -15 3 -28 -11
-13 -8 -14 27 -8 22 4 47 14 56 22 16 14 36 16 100 11 41 -4 62 -15 54 -28 -4
-5 170 -9 447 -9 l453 0 54 60 c29 33 59 60 65 60 12 0 56 41 56 52 0 3 30 57
67 119 104 176 171 311 224 450 l49 128 -11 243 c-12 268 -9 308 22 308 14 0
21 9 25 30 4 16 11 27 17 23 6 -4 7 7 3 30 -4 21 -2 38 4 42 6 3 10 -4 10 -17
0 -13 4 -29 9 -37 7 -11 11 -10 20 7 8 15 8 22 -2 25 -6 2 0 4 15 3 16 0 28
-4 28 -8 0 -13 40 -19 85 -13 25 4 42 12 39 17 -3 5 3 4 15 -4 24 -15 27 -24
9 -31 -7 -3 11 -6 40 -6 28 -1 52 2 52 7 0 9 49 32 68 32 7 0 10 5 7 10 -4 6
23 10 74 10 57 0 82 -4 88 -14 9 -15 101 -28 108 -15 3 4 -18 9 -47 11 -49 3
-53 5 -56 30 -3 28 -4 28 -78 28 -45 0 -74 4 -74 11 0 5 4 8 9 4 5 -3 12 -1
16 5 3 5 22 10 42 10 33 0 68 8 128 30 11 4 36 5 56 2 29 -3 36 -8 32 -22 -3
-10 0 -27 6 -39 9 -16 20 -20 56 -18 29 1 45 7 45 15 0 35 56 63 92 47 28 -11
10 -27 -23 -20 -24 5 -28 4 -23 -9 3 -9 1 -16 -5 -16 -7 0 -22 -9 -34 -20 -14
-14 -30 -19 -44 -15 -16 4 -23 1 -23 -10 0 -8 -4 -15 -10 -15 -5 0 -10 -9 -10
-20 0 -11 5 -20 10 -20 6 0 10 5 10 10 0 6 9 10 20 10 13 0 18 5 14 15 -7 16
11 21 20 6 7 -11 46 -2 46 11 0 5 17 8 38 6 33 -3 37 -1 35 19 -2 13 1 23 5
23 5 0 17 7 28 15 14 11 15 14 3 9 -10 -3 -20 0 -24 6 -5 9 5 11 36 8 39 -3
44 0 47 19 3 24 32 54 32 34 0 -6 -5 -20 -12 -30 -15 -25 -4 -53 19 -44 15 5
16 4 7 -8 -16 -20 -28 -72 -14 -64 5 3 10 15 10 25 0 10 7 26 16 34 14 15 13
17 -8 25 -23 10 -23 10 5 10 21 1 27 6 26 24 0 12 -3 16 -6 10 -9 -23 -31 -14
-36 14 -5 29 6 43 33 43 11 -1 10 -4 -5 -15 -18 -14 -17 -15 18 -13 37 3 56
25 42 48 -4 6 5 10 19 10 21 0 26 -5 26 -26 0 -19 -4 -25 -15 -20 -20 7 -19 5
9 -47 21 -40 23 -59 25 -183 1 -76 3 -140 5 -141 3 -3 20 593 36 1242 6 220
15 495 20 610 5 116 12 287 16 380 4 94 11 175 16 182 9 11 38 7 48 -8 3 -4
23 -9 45 -10 39 -4 40 -3 47 36 4 22 7 102 7 178 l1 137 -26 10 c-14 6 -40 10
-58 10 -18 0 -69 14 -114 30 -46 17 -93 30 -105 30 -15 0 -27 9 -35 28 -6 15
-23 42 -36 60 -38 51 -75 177 -73 244 2 49 0 58 -18 66 -20 9 -95 148 -95 176
0 19 42 42 180 100 63 26 131 55 150 64 19 9 78 32 130 53 l95 37 3 551 2 551
-390 -1 c-329 0 -390 -2 -390 -14 0 -8 -10 -19 -21 -26 -20 -10 -21 -9 -17 15
l5 26 -2178 0 -2179 0 0 -2634z m4209 2463 c-7 -4 -17 -5 -22 -2 -5 3 -3 9 4
14 7 4 17 5 22 2 5 -3 3 -9 -4 -14z m-41 -135 c33 -9 29 -44 -5 -44 -43 0 -73
11 -73 25 0 22 35 30 78 19z m46 -100 c8 -21 -11 -44 -35 -44 -27 0 -33 19
-13 41 21 23 40 24 48 3z m-360 -25 c-4 -6 -11 -6 -20 2 -21 17 -17 31 6 19
11 -6 18 -15 14 -21z m810 -384 c-4 -8 -10 -15 -15 -15 -5 0 -9 7 -9 15 0 8 7
15 15 15 9 0 12 -6 9 -15z m-2319 -665 c3 -5 1 -10 -4 -10 -6 0 -11 5 -11 10
0 6 2 10 4 10 3 0 8 -4 11 -10z m185 -46 c0 -2 -9 -4 -20 -4 -11 0 -20 4 -20
9 0 5 9 7 20 4 11 -3 20 -7 20 -9z m750 -634 c0 -43 -81 -85 -109 -57 -19 19
-13 54 12 62 73 25 97 24 97 -5z m-1180 -179 c0 -9 -35 -22 -88 -34 -31 -7
-17 12 22 29 36 16 66 18 66 5z m1320 -595 c25 -9 55 -16 68 -16 12 0 30 -9
39 -20 11 -12 24 -18 38 -14 24 6 104 -31 112 -52 7 -19 67 -48 71 -34 2 5 10
10 18 10 9 0 12 -4 9 -10 -3 -5 -1 -10 5 -10 6 0 15 -10 21 -22 21 -45 46 -86
62 -103 9 -9 17 -30 17 -46 0 -18 4 -28 10 -24 6 3 10 -1 10 -9 0 -9 4 -16 8
-16 5 0 17 -25 28 -55 15 -45 16 -59 6 -75 -7 -11 -12 -28 -12 -37 0 -10 -7
-26 -14 -35 -16 -22 -66 -24 -66 -3 0 18 -2 18 -34 4 -13 -6 -27 -22 -30 -35
-5 -17 -13 -24 -31 -24 -14 0 -26 -6 -27 -12 0 -7 -2 -17 -2 -23 -3 -23 -19
-35 -48 -35 -23 0 -29 4 -24 15 4 12 -5 15 -54 15 -32 0 -62 5 -65 10 -3 6
-19 10 -34 10 -36 0 -101 57 -101 88 0 13 -20 56 -44 96 -30 50 -45 87 -49
122 -11 97 -25 170 -41 217 -21 62 -21 145 0 168 15 16 18 16 62 -6 26 -13 67
-30 92 -39z m-192 -229 c2 -10 -3 -17 -12 -17 -10 0 -16 9 -16 21 0 24 23 21
28 -4z m-427 -387 l44 -20 -51 0 c-54 0 -114 16 -114 31 0 16 77 9 121 -11z
m76 -16 c-3 -3 -12 -4 -19 -1 -8 3 -5 6 6 6 11 1 17 -2 13 -5z m1243 -944 c-8
-5 -22 -10 -30 -10 -13 0 -13 1 0 10 8 5 22 10 30 10 13 0 13 -1 0 -10z m510
-4 c0 -3 -4 -8 -10 -11 -5 -3 -10 -1 -10 4 0 6 5 11 10 11 6 0 10 -2 10 -4z
m-661 -37 c-16 -10 -23 -4 -14 10 3 6 11 8 17 5 6 -4 5 -9 -3 -15z m108 -5
c-3 -3 -12 -4 -19 -1 -8 3 -5 6 6 6 11 1 17 -2 13 -5z"/>
<path d="M4360 2789 c0 -5 5 -7 10 -4 6 3 10 8 10 11 0 2 -4 4 -10 4 -5 0 -10
-5 -10 -11z"/>
<path d="M1680 3719 c-19 -35 -60 -181 -60 -213 0 -60 17 -63 34 -7 8 28 24
65 36 80 11 16 20 33 20 38 0 6 9 18 20 28 22 20 25 46 10 76 -14 25 -46 24
-60 -2z"/>
<path d="M1810 3112 c0 -12 19 -26 26 -19 2 2 -2 10 -11 17 -9 8 -15 8 -15 2z"/>
<path d="M2853 2973 c-7 -2 -28 -19 -47 -36 -19 -18 -50 -45 -70 -62 -19 -16
-40 -44 -46 -60 -5 -17 -19 -38 -30 -48 -11 -9 -20 -21 -20 -27 0 -21 27 -8
76 38 28 26 65 60 82 75 18 16 32 34 32 40 0 7 12 25 26 40 25 27 23 50 -3 40z"/>
<path d="M2445 2630 c-3 -5 1 -10 9 -10 9 0 16 5 16 10 0 6 -4 10 -9 10 -6 0
-13 -4 -16 -10z"/>
<path d="M1731 1626 c-17 -18 -19 -26 -10 -31 8 -5 10 -4 5 4 -5 7 3 13 23 17
17 4 31 13 31 20 0 22 -24 17 -49 -10z"/>
<path d="M4840 1610 c0 -5 -6 -7 -14 -4 -8 3 -23 1 -32 -4 -16 -9 -15 -10 4
-16 12 -4 22 -12 22 -17 0 -5 9 -9 20 -9 11 0 20 -4 20 -10 0 -5 21 -10 48
-10 34 0 43 -3 32 -10 -8 -5 -10 -10 -4 -10 23 0 22 14 -2 37 -17 16 -24 31
-21 44 3 13 1 19 -6 16 -6 -2 -13 -16 -14 -31 -3 -37 -13 -47 -13 -13 0 15 -6
27 -12 27 -9 0 -8 4 2 10 12 8 11 10 -7 10 -13 0 -23 -4 -23 -10z"/>
<path d="M5217 1593 c-4 -3 -7 -15 -7 -25 0 -26 24 -17 28 10 3 21 -8 29 -21
15z"/>
<path d="M1743 1556 c-12 -6 -24 -22 -27 -37 -3 -15 -21 -42 -40 -61 l-35 -34
-8 -314 c-13 -508 -18 -460 62 -585 24 -38 45 -81 45 -95 0 -14 16 -59 36
-100 27 -57 37 -91 39 -138 2 -36 10 -71 18 -80 8 -10 17 -25 20 -35 9 -26 30
-21 21 5 -3 12 -8 87 -9 167 -2 97 -6 146 -14 149 -6 2 -11 11 -11 20 0 8 -7
23 -16 33 -22 24 -34 77 -44 189 -4 52 -15 122 -24 155 -41 154 -41 373 -1
525 27 102 35 206 18 233 -6 9 -14 10 -30 3z"/>
<path d="M1635 1487 c-4 -10 -5 -21 -1 -24 10 -10 18 4 13 24 -4 17 -4 17 -12
0z"/>
<path d="M4306 1483 c5 -5 12 -12 16 -18 4 -6 8 -2 8 8 0 9 -7 17 -17 17 -9 0
-12 -3 -7 -7z"/>
<path d="M4408 1483 c7 -3 16 -2 19 1 4 3 -2 6 -13 5 -11 0 -14 -3 -6 -6z"/>
<path d="M4342 1458 c2 -5 8 -9 13 -9 5 0 11 4 13 9 1 5 -4 9 -13 9 -9 0 -14
-4 -13 -9z"/>
<path d="M4220 1396 c0 -13 -2 -31 -5 -38 -7 -18 27 -58 50 -58 15 0 17 6 12
38 -4 20 -15 44 -26 53 -11 9 -17 19 -14 23 4 3 1 6 -5 6 -7 0 -12 -11 -12
-24z"/>
<path d="M5443 1275 c0 -22 2 -30 4 -17 2 12 2 30 0 40 -3 9 -5 -1 -4 -23z"/>
<path d="M4390 1005 c0 -18 134 -85 169 -85 23 0 21 2 -14 20 -22 11 -51 30
-65 43 -31 29 -90 43 -90 22z"/>
<path d="M4588 903 c7 -3 16 -2 19 1 4 3 -2 6 -13 5 -11 0 -14 -3 -6 -6z"/>
<path d="M5657 773 c-4 -3 -7 -12 -7 -19 0 -6 -15 -27 -34 -46 -26 -26 -36
-46 -41 -84 -4 -27 -13 -63 -20 -80 -7 -18 -11 -51 -8 -77 4 -34 0 -57 -16
-90 -27 -56 -52 -240 -44 -319 l6 -58 94 0 95 0 -5 386 c-3 212 -7 387 -9 390
-3 2 -8 1 -11 -3z"/>
<path d="M4237 354 c-4 -4 -7 -17 -7 -28 1 -19 1 -20 11 -3 11 19 8 43 -4 31z"/>
<path d="M2422 180 c0 -14 2 -19 5 -12 2 6 2 18 0 25 -3 6 -5 1 -5 -13z"/>
</g>
</svg>
